<svg width="276" height="60" viewBox="0 0 276 60" fill="none" xmlns="http://www.w3.org/2000/svg">
<path fill-rule="evenodd" clip-rule="evenodd" d="M27.8667 1.44976C27.8667 0.970036 27.6175 0.524764 27.2085 0.273939C26.7996 0.0231142 26.2897 0.00276437 25.8621 0.220201C23.4768 1.43312 20.7811 2.82446 18.1524 4.18131L18.1521 4.18143C13.2136 6.73049 8.51092 9.15777 6.54439 10.0515C3.86786 11.268 1.97287 13.3333 1.1652 15.6089C0.828751 16.5568 0.681908 17.5495 0.753458 18.5206L0.753459 42.3573C0.753459 44.4044 2.14417 46.1034 3.76041 47.1332C5.41614 48.1882 7.61052 48.7575 9.77799 48.3612C12.4034 47.8813 16.1743 46.3683 18.3328 45.4137C18.8631 45.1792 19.1974 44.6512 19.1974 44.0715C19.1975 42.9802 18.0631 42.2527 17.0623 42.6877C14.6295 43.7448 11.1803 45.1359 9.25827 45.4873C7.89478 45.7365 6.43316 45.3779 5.31562 44.6659C4.1586 43.9287 3.61485 42.9775 3.61485 42.3134L3.54448 23.3159C5.42381 24.7827 7.52939 25.2978 9.78437 25.1516C12.388 24.9827 15.1752 23.9346 18.0504 22.6277C23.7899 20.0188 33.4443 15.2982 37.5052 13.2928C41.3419 11.3981 44.7556 11.2919 47.0248 12.5204C48.2432 13.1799 48.8719 13.8606 49.2271 14.5112C49.5914 15.178 49.7396 15.9417 49.7851 16.8978C49.8539 18.3417 48.7458 20.1109 47.0526 20.9781C46.6355 21.1918 45.5868 21.738 44.137 22.4932L44.137 22.4933L44.132 22.4958L44.1286 22.4976L44.1285 22.4977L44.1281 22.4979C39.7536 24.7766 31.74 28.9511 26.3956 31.6358C25.9296 31.8699 25.6354 32.3468 25.6354 32.8684V57.6554C25.6354 58.1351 25.8847 58.5803 26.2936 58.8312C26.7025 59.082 27.2123 59.1024 27.64 58.885C31.0799 57.136 36.3281 54.456 40.8933 52.0997C45.4054 49.7707 49.3741 47.6955 50.1495 47.1976C51.4347 46.3722 52.0155 45.1066 52.2829 44.0152C52.4251 43.4345 52.4894 42.8584 52.5184 42.3575H52.5471V17.159H52.5457C52.5486 17.0285 52.547 16.8977 52.5408 16.7666C52.486 15.6164 52.2977 14.3778 51.6484 13.1888C50.9901 11.9835 49.9282 10.955 48.3381 10.0942C44.9906 8.28211 40.5714 8.70181 36.2837 10.8192C34.3756 11.7614 31.2428 13.2981 27.8667 14.9311V1.44976ZM25.1079 3.70289V16.2604C22.1511 17.6793 19.2097 19.0703 16.9088 20.1162C14.0672 21.4078 11.6722 22.2646 9.60585 22.3986C7.63806 22.5262 5.96797 22.0013 4.44102 20.4152C3.48167 19.4188 3.23819 18.0161 3.76507 16.5317C4.29724 15.0323 5.61948 13.5022 7.68585 12.5631C9.71403 11.6413 14.5501 9.14532 19.5466 6.56655L19.5467 6.56652L19.547 6.56633L19.5471 6.5663L19.5474 6.56615C21.4251 5.59703 23.3255 4.61622 25.1079 3.70289ZM40.28 46.5811L40.2839 46.4941V37.2161L43.9683 35.2927L44.0435 35.249C44.4031 35.012 44.5319 34.5364 44.3283 34.1464C44.1246 33.7564 43.6608 33.5901 43.2608 33.7496L43.1819 33.7864L40.2839 35.2993V30.6152C40.2839 30.1458 39.9037 29.7656 39.4343 29.7656C38.9649 29.7656 38.5847 30.1458 38.5847 30.6152V36.1864L34.9007 38.1096C34.4845 38.3269 34.3235 38.8398 34.5407 39.256C34.758 39.6721 35.2709 39.8332 35.687 39.6159L38.5847 38.1032V46.4941L38.5886 46.5811C38.6319 47.0099 38.994 47.3447 39.4343 47.3447C39.8746 47.3447 40.2367 47.0099 40.28 46.5811Z" fill="white"/>
<path d="M79.6711 43.1286C77.8231 43.1286 76.2031 42.7566 74.8111 42.0126C73.4431 41.2686 72.3511 40.2366 71.5351 38.9166C70.7191 37.5726 70.2391 36.0126 70.0951 34.2366L73.9831 33.9846C74.1511 35.2086 74.4871 36.2406 74.9911 37.0806C75.4951 37.9206 76.1551 38.5566 76.9711 38.9886C77.7871 39.3966 78.7351 39.6006 79.8151 39.6006C80.8711 39.6006 81.7591 39.4686 82.4791 39.2046C83.1991 38.9166 83.7511 38.5086 84.1351 37.9806C84.5191 37.4526 84.7111 36.8166 84.7111 36.0726C84.7111 35.3046 84.5311 34.6326 84.1711 34.0566C83.8111 33.4806 83.1631 32.9526 82.2271 32.4726C81.2911 31.9926 79.9231 31.5006 78.1231 30.9966C76.3711 30.5166 74.9431 29.9766 73.8391 29.3766C72.7351 28.7766 71.9311 28.0326 71.4271 27.1446C70.9231 26.2566 70.6711 25.1525 70.6711 23.8325C70.6711 22.3686 71.0071 21.0846 71.6791 19.9806C72.3751 18.8526 73.3591 17.9766 74.6311 17.3525C75.9271 16.7286 77.4751 16.4166 79.2751 16.4166C81.0511 16.4166 82.5631 16.7646 83.8111 17.4606C85.0831 18.1565 86.0791 19.1285 86.7991 20.3765C87.5431 21.6006 87.9991 23.0406 88.1671 24.6966L84.2791 24.9126C84.1591 23.9286 83.8831 23.0646 83.4511 22.3205C83.0431 21.5765 82.4791 21.0005 81.7591 20.5926C81.0391 20.1606 80.1751 19.9446 79.1671 19.9446C77.7511 19.9446 76.6231 20.2926 75.7831 20.9885C74.9671 21.6605 74.5591 22.5485 74.5591 23.6525C74.5591 24.3966 74.7271 25.0086 75.0631 25.4885C75.3991 25.9686 75.9871 26.4006 76.8271 26.7846C77.6671 27.1686 78.8431 27.5646 80.3551 27.9726C82.3951 28.5246 84.0151 29.1606 85.2151 29.8806C86.4151 30.6006 87.2791 31.4646 87.8071 32.4726C88.3351 33.4806 88.5991 34.6806 88.5991 36.0726C88.5991 37.4646 88.2271 38.7006 87.4831 39.7806C86.7391 40.8366 85.6951 41.6646 84.3511 42.2646C83.0311 42.8406 81.4711 43.1286 79.6711 43.1286ZM100.285 42.9846C98.509 42.9846 96.937 42.5766 95.569 41.7606C94.225 40.9206 93.181 39.7566 92.437 38.2686C91.717 36.7566 91.357 34.9926 91.357 32.9766C91.357 30.9606 91.717 29.2086 92.437 27.7206C93.181 26.2326 94.225 25.0686 95.569 24.2286C96.937 23.3886 98.509 22.9686 100.285 22.9686C101.749 22.9686 103.057 23.2446 104.209 23.7966C105.361 24.3246 106.309 25.1046 107.053 26.1366C107.797 27.1686 108.289 28.4046 108.529 29.8446L104.821 30.0966C104.533 28.8726 103.993 27.9366 103.201 27.2886C102.409 26.6406 101.449 26.3166 100.321 26.3166C98.713 26.3166 97.441 26.9166 96.505 28.1166C95.593 29.2926 95.137 30.9126 95.137 32.9766C95.137 35.0406 95.593 36.6726 96.505 37.8726C97.441 39.0486 98.713 39.6366 100.321 39.6366C101.473 39.6366 102.457 39.3006 103.273 38.6286C104.113 37.9326 104.665 36.9126 104.929 35.5686L108.637 35.7846C108.397 37.2486 107.893 38.5206 107.125 39.6006C106.357 40.6566 105.385 41.4846 104.209 42.0846C103.057 42.6846 101.749 42.9846 100.285 42.9846ZM117.443 42.5526V23.4006H120.323L120.647 28.2966L120.323 28.2606C120.563 26.6046 121.079 25.3806 121.871 24.5886C122.663 23.7966 123.755 23.4006 125.147 23.4006H129.215V26.5685H125.291C124.379 26.5685 123.611 26.7486 122.987 27.1086C122.363 27.4446 121.883 27.9606 121.547 28.6566C121.235 29.3286 121.079 30.1686 121.079 31.1766V42.5526H117.443ZM112.583 42.5526V39.4926H127.055V42.5526H112.583ZM112.583 26.4606V23.4006H119.495V26.4606H112.583ZM140.289 42.5526V23.4006H143.961V42.5526H140.289ZM132.801 42.5526V39.4926H150.369V42.5526H132.801ZM133.161 26.4606V23.4006H143.637V26.4606H133.161ZM140.073 20.6286V16.8485H143.817V20.6286H140.073ZM153.163 47.9526V23.4006H156.619L156.691 27.7566L156.259 27.5406C156.739 26.0526 157.519 24.9246 158.599 24.1565C159.703 23.3646 160.999 22.9686 162.487 22.9686C164.335 22.9686 165.847 23.4366 167.023 24.3726C168.199 25.2846 169.075 26.4966 169.651 28.0086C170.227 29.5206 170.515 31.1766 170.515 32.9766C170.515 34.7766 170.227 36.4326 169.651 37.9446C169.075 39.4566 168.199 40.6806 167.023 41.6166C165.847 42.5286 164.335 42.9846 162.487 42.9846C161.503 42.9846 160.591 42.8286 159.751 42.5166C158.911 42.1806 158.191 41.7126 157.591 41.1126C157.015 40.4886 156.595 39.7446 156.331 38.8806L156.799 38.3766V47.9526H153.163ZM161.803 39.6366C163.339 39.6366 164.539 39.0606 165.403 37.9086C166.267 36.7566 166.699 35.1126 166.699 32.9766C166.699 30.8406 166.267 29.1966 165.403 28.0446C164.539 26.8926 163.339 26.3166 161.803 26.3166C160.795 26.3166 159.919 26.5686 159.175 27.0726C158.431 27.5526 157.843 28.2846 157.411 29.2686C157.003 30.2526 156.799 31.4886 156.799 32.9766C156.799 34.4646 157.003 35.7006 157.411 36.6846C157.819 37.6686 158.395 38.4126 159.139 38.9166C159.907 39.3966 160.795 39.6366 161.803 39.6366ZM184.613 42.5526C182.669 42.5526 181.217 42.1086 180.257 41.2206C179.321 40.3086 178.853 38.9166 178.853 37.0446V18.9006H182.489V36.8646C182.489 37.7526 182.693 38.4126 183.101 38.8446C183.533 39.2766 184.169 39.4926 185.009 39.4926H189.941V42.5526H184.613ZM172.805 26.4606V23.4006H189.941V26.4606H172.805ZM200.727 42.9846C198.879 42.9846 197.403 42.3606 196.299 41.1126C195.195 39.8406 194.643 38.0646 194.643 35.7846V23.4006H198.279V34.8486C198.279 36.5766 198.579 37.8366 199.179 38.6286C199.779 39.4206 200.691 39.8166 201.915 39.8166C203.235 39.8166 204.291 39.3726 205.083 38.4846C205.899 37.5966 206.307 36.3366 206.307 34.7046V23.4006H209.943V42.5526H206.523L206.487 37.5486L206.991 37.7646C206.655 39.4206 205.947 40.7046 204.867 41.6166C203.787 42.5286 202.407 42.9846 200.727 42.9846ZM219.973 42.5526V23.4006H222.853L223.177 28.2966L222.853 28.2606C223.093 26.6046 223.609 25.3806 224.401 24.5886C225.193 23.7966 226.285 23.4006 227.677 23.4006H231.745V26.5685H227.821C226.909 26.5685 226.141 26.7486 225.517 27.1086C224.893 27.4446 224.413 27.9606 224.077 28.6566C223.765 29.3286 223.609 30.1686 223.609 31.1766V42.5526H219.973ZM215.113 42.5526V39.4926H229.585V42.5526H215.113ZM215.113 26.4606V23.4006H222.025V26.4606H215.113ZM240.803 42.9846C239.603 42.9846 238.523 42.7686 237.563 42.3366C236.603 41.9046 235.835 41.2926 235.259 40.5006C234.707 39.7086 234.431 38.7846 234.431 37.7286C234.431 36.0966 234.923 34.8246 235.907 33.9126C236.915 33.0006 238.427 32.3526 240.443 31.9686L246.635 30.6726C246.635 29.1846 246.311 28.0686 245.663 27.3246C245.015 26.5806 244.043 26.2086 242.747 26.2086C241.547 26.2086 240.611 26.4846 239.939 27.0366C239.267 27.5886 238.811 28.3566 238.571 29.3406L234.755 29.0886C235.115 27.2646 235.991 25.7886 237.383 24.6606C238.775 23.5326 240.563 22.9686 242.747 22.9686C245.195 22.9686 247.055 23.6646 248.327 25.0566C249.623 26.4486 250.271 28.3686 250.271 30.8166V38.3766C250.271 38.8086 250.367 39.1206 250.559 39.3126C250.751 39.4806 251.027 39.5646 251.387 39.5646H252.467V42.5526C252.323 42.5766 252.083 42.6006 251.747 42.6246C251.435 42.6486 251.123 42.6606 250.811 42.6606C249.947 42.6606 249.215 42.5166 248.615 42.2286C248.015 41.9406 247.559 41.4966 247.247 40.8966C246.959 40.2726 246.791 39.4926 246.743 38.5566H247.319C247.175 39.3966 246.803 40.1526 246.203 40.8246C245.603 41.4966 244.835 42.0246 243.899 42.4086C242.963 42.7926 241.931 42.9846 240.803 42.9846ZM241.343 39.9966C242.495 39.9966 243.467 39.7926 244.259 39.3846C245.051 38.9766 245.639 38.4006 246.023 37.6566C246.431 36.9126 246.635 36.0366 246.635 35.0286V33.5526L241.307 34.6326C240.155 34.8486 239.351 35.1846 238.895 35.6406C238.439 36.0966 238.211 36.6966 238.211 37.4406C238.211 38.2326 238.487 38.8566 239.039 39.3126C239.591 39.7686 240.359 39.9966 241.343 39.9966ZM262.605 42.5526V22.4286C262.605 21.6846 262.389 21.1085 261.957 20.7005C261.549 20.2686 260.973 20.0526 260.229 20.0526H255.837V16.9925H260.625C262.473 16.9925 263.865 17.4726 264.801 18.4326C265.761 19.3686 266.241 20.7606 266.241 22.6086V42.5526H262.605ZM255.117 42.5526V39.4926H272.685V42.5526H255.117Z" fill="white"/>
</svg>
